<svg id="Layer_1" data-name="Layer 1" xmlns="http://www.w3.org/2000/svg" viewBox="0 0 436.49 130.12">
  <defs>
    <style>
      .cls-1 {
        fill: #373737;
      }
    </style>
  </defs>
  <title>Artboard 1</title>
  <g>
    <path class="cls-1" d="M12.06,80.57q3.14-3.3,8.74-3.3t8.7,3.27a11.11,11.11,0,0,1,3.17,8,10.71,10.71,0,0,1-3.23,8,11.8,11.8,0,0,1-8.64,3.17,11.74,11.74,0,0,1-8.68-3.2,10.79,10.79,0,0,1-3.2-7.94A11.2,11.2,0,0,1,12.06,80.57Z"/>
    <path class="cls-1" d="M122.22,31.22a41.57,41.57,0,0,1,5.32,1.14L125,49.4a60.6,60.6,0,0,0-6.92-1.2,61.79,61.79,0,0,0-6.74-.4,28.11,28.11,0,0,0-6,.59,17.39,17.39,0,0,0-4.77,1.75,14.7,14.7,0,0,0-4.3,3.45,18.14,18.14,0,0,0-3,4.92v40H76.23V31.93H92.16l.68,9.41L93,42.82a30.62,30.62,0,0,1,9.72-8.89,24.59,24.59,0,0,1,12.37-3.23A47,47,0,0,1,122.22,31.22Z"/>
    <path class="cls-1" d="M185.31,89.15A25.64,25.64,0,0,1,177.16,97a20,20,0,0,1-10.43,2.83,26.89,26.89,0,0,1-9.47-1.6,18,18,0,0,1-7.39-5.1,23.8,23.8,0,0,1-4.77-8.83,43.8,43.8,0,0,1-1.69-13V31.93h17.11v39.5a33.76,33.76,0,0,0,.58,6.83A10.83,10.83,0,0,0,163,82.69a7,7,0,0,0,3.38,2.46,15.5,15.5,0,0,0,5.11.74,19.91,19.91,0,0,0,4.89-.56,13.2,13.2,0,0,0,3.84-1.6,11.58,11.58,0,0,0,2.53-2.21,14.45,14.45,0,0,0,1.9-2.89V31.93H201.8V98.5H186.29Z"/>
    <path class="cls-1" d="M224.72,125.08c-1.21-.21-2.56-.51-4-.92l2.09-13c.69,0,1.59,0,2.67.09s2,.1,2.62.1a5.6,5.6,0,0,0,3.6-1.26,15.65,15.65,0,0,0,2.67-2.74c.74-1,1.29-1.72,1.63-2.22a23.14,23.14,0,0,0,1.27-2.09l3.93-7.32L213,31.93h18.7l15.26,39,1.84,6.77,2.52-6.65,15.2-39.13h18.89l-33.78,76.54a51.37,51.37,0,0,1-2.86,5.47,25.47,25.47,0,0,1-4.4,5.48,23,23,0,0,1-6.43,4.24,21.39,21.39,0,0,1-8.95,1.73A26.4,26.4,0,0,1,224.72,125.08Z"/>
    <path class="cls-1" d="M334.87,31.93V84.6h18V98.5H298.64V84.6h18.95V45.9H298.64v-14Zm-17.81-20.7a8.5,8.5,0,0,1,2-2.92,9.52,9.52,0,0,1,3.11-1.85,11.47,11.47,0,0,1,4-.68,10.07,10.07,0,0,1,7.23,2.56,8.65,8.65,0,0,1,2.67,6.55,8.65,8.65,0,0,1-2.67,6.55A10.07,10.07,0,0,1,326.2,24a11.47,11.47,0,0,1-4-.68,9,9,0,0,1-3.11-1.91,7.9,7.9,0,0,1-2-2.86,9.79,9.79,0,0,1,0-7.32Z"/>
    <path class="cls-1" d="M369.7,31.93h15.5l1.05,9.23a24.48,24.48,0,0,1,2.83-3.38A25,25,0,0,1,392.34,35a23.07,23.07,0,0,1,6.46-3.2,24.49,24.49,0,0,1,7.44-1.11,27.45,27.45,0,0,1,9.23,1.48,18.42,18.42,0,0,1,7.26,4.67,22.59,22.59,0,0,1,4.7,8.34,39.24,39.24,0,0,1,1.7,12.34v41H412V57.77a19.84,19.84,0,0,0-.89-6.49,8.83,8.83,0,0,0-6.55-6.09,21.86,21.86,0,0,0-5.29-.58,17.33,17.33,0,0,0-4.52.55,11.56,11.56,0,0,0-3.66,1.66,11.31,11.31,0,0,0-2.34,1.91,16.14,16.14,0,0,0-1.91,2.46V98.5H369.7Z"/>
  </g>
</svg>
