<svg id="Layer_1" data-name="Layer 1" xmlns="http://www.w3.org/2000/svg" viewBox="0 0 510.94 143.59">
  <defs>
    <style>
      .cls-1 {
        fill: #ffc84d;
      }
    </style>
  </defs>
  <title>bg-text-works</title>
  <g>
    <path class="cls-1" d="M8,11.05H29.13l8,66.77.58,4.68.73-4.92,9.44-66.53H64.32l10,67L75.06,83l.58-5,8.12-66.94h21.16L88.35,130.49H67.52L57.1,66l-.9-6.07L55.29,66l-10,64.48H24.45Z"/>
    <path class="cls-1" d="M118,67.36a41,41,0,0,1,8.21-14.31,37.28,37.28,0,0,1,13.08-9.52A43.45,43.45,0,0,1,157,40.09a43.72,43.72,0,0,1,17.8,3.44A38.05,38.05,0,0,1,188,53.05a41.78,41.78,0,0,1,8.12,14.31,55.65,55.65,0,0,1,2.79,17.93V87a55.89,55.89,0,0,1-2.79,18A41.78,41.78,0,0,1,188,119.33a36.82,36.82,0,0,1-13.13,9.48,44,44,0,0,1-17.71,3.4,44.57,44.57,0,0,1-17.85-3.4,36.67,36.67,0,0,1-13.16-9.48A41,41,0,0,1,118,105a55.89,55.89,0,0,1-2.78-18V85.29A55.65,55.65,0,0,1,118,67.36Zm21.09,30.11a26.1,26.1,0,0,0,3.36,8.49,16.42,16.42,0,0,0,14.77,8,16.57,16.57,0,0,0,8.61-2.14A17.31,17.31,0,0,0,171.7,106,27.44,27.44,0,0,0,175,97.47,49,49,0,0,0,176,87V85.29A47.7,47.7,0,0,0,175,75a28.49,28.49,0,0,0-3.28-8.53,17.31,17.31,0,0,0-5.91-5.82A17,17,0,0,0,157,58.55a16.78,16.78,0,0,0-8.69,2.13,17.14,17.14,0,0,0-5.91,5.82A27.07,27.07,0,0,0,139.05,75,47.69,47.69,0,0,0,138,85.29V87A49,49,0,0,0,139.05,97.47Z"/>
    <path class="cls-1" d="M292.4,40.79a55.79,55.79,0,0,1,7.1,1.51L296.14,65a77.67,77.67,0,0,0-9.23-1.6,79.18,79.18,0,0,0-9-.54,37.55,37.55,0,0,0-8,.78A23,23,0,0,0,263.57,66a19.74,19.74,0,0,0-5.74,4.59,24.25,24.25,0,0,0-3.94,6.57v53.32h-22.8V41.73h21.24l.9,12.55.17,2a40.74,40.74,0,0,1,13-11.85,32.61,32.61,0,0,1,16.49-4.31A60.32,60.32,0,0,1,292.4,40.79Z"/>
    <path class="cls-1" d="M343,103.42v27.07H320.17V4.49H343v72l6.89-7.87,24.52-26.91h27.4l-33.47,37,38.15,51.76h-28L353.31,93.82Z"/>
    <path class="cls-1" d="M477.06,102.51a9.3,9.3,0,0,0-3.33-3,34.35,34.35,0,0,0-6.48-2.46q-4-1.14-10.17-2.3a96.92,96.92,0,0,1-14.23-3.89,44.09,44.09,0,0,1-11-5.7,25.15,25.15,0,0,1-7.18-7.63,19.26,19.26,0,0,1-2.59-10,22.33,22.33,0,0,1,2.63-10.5,26.56,26.56,0,0,1,7.55-8.78,38.58,38.58,0,0,1,12-6,53.31,53.31,0,0,1,15.92-2.21,58.88,58.88,0,0,1,16.65,2.17,40.71,40.71,0,0,1,12.55,6,26.75,26.75,0,0,1,7.79,9.11,24.45,24.45,0,0,1,2.71,11.4H477a11.58,11.58,0,0,0-.74-4.15,10.58,10.58,0,0,0-2.22-3.48,14.48,14.48,0,0,0-5.54-3.28,25.32,25.32,0,0,0-8.4-1.23,28.68,28.68,0,0,0-7.3.82,14.54,14.54,0,0,0-5.09,2.29A9.2,9.2,0,0,0,445,62.77,7.79,7.79,0,0,0,444,66.5a8.14,8.14,0,0,0,.82,3.65,7.52,7.52,0,0,0,2.95,3,21.36,21.36,0,0,0,5.66,2.5,64,64,0,0,0,9.19,1.93,118.85,118.85,0,0,1,14.93,3.36,46.88,46.88,0,0,1,11.89,5.25,25.18,25.18,0,0,1,7.84,7.92,20.8,20.8,0,0,1,2.83,11A21.63,21.63,0,0,1,497.32,116a26.42,26.42,0,0,1-8,8.57,41.17,41.17,0,0,1-12.63,5.62,62.76,62.76,0,0,1-16.49,2,54.53,54.53,0,0,1-17.68-2.63,40.39,40.39,0,0,1-12.84-6.89,28.8,28.8,0,0,1-7.83-9.55,24,24,0,0,1-2.67-10.79h21.74a12.5,12.5,0,0,0,2,6.19,13.13,13.13,0,0,0,4.43,4.15,20,20,0,0,0,6.19,2.38,34.77,34.77,0,0,0,7.18.73,34.15,34.15,0,0,0,7.75-.78,18,18,0,0,0,5.46-2.09,9.27,9.27,0,0,0,3.07-3,7.21,7.21,0,0,0,1-3.78A6.94,6.94,0,0,0,477.06,102.51Z"/>
  </g>
</svg>
