<svg id="Layer_1" data-name="Layer 1" xmlns="http://www.w3.org/2000/svg" viewBox="0 0 496.15 143.59">
  <defs>
    <style>
      .cls-1 {
        fill: #f2f1f1;
      }
    </style>
  </defs>
  <title>bg-text-hello</title>
  <g>
    <path class="cls-1" d="M61.25,135V83.21H27.45V135H4.56V15.54H27.45v49h33.8v-49h22.8V135Z"/>
    <path class="cls-1" d="M131.3,133.25A43.48,43.48,0,0,1,117,124.06a39.32,39.32,0,0,1-9.23-13.57,43.47,43.47,0,0,1-3.24-16.78V90.43a51.73,51.73,0,0,1,3.2-18.58,43.11,43.11,0,0,1,8.94-14.48,40.4,40.4,0,0,1,13.62-9.43,43.21,43.21,0,0,1,17.14-3.36,43.82,43.82,0,0,1,17.1,3.15,36,36,0,0,1,12.76,8.9,38.81,38.81,0,0,1,7.87,13.83,55.7,55.7,0,0,1,2.71,17.84V98H127.61v.24a31.7,31.7,0,0,0,3,8.58,21.9,21.9,0,0,0,4.84,5.86,22.79,22.79,0,0,0,7.14,4.19,25.4,25.4,0,0,0,8.78,1.47,34.72,34.72,0,0,0,13-2.54,24,24,0,0,0,10.25-7.63L186,120.45q-4.35,6.17-13.78,11.16t-22.32,5A49.58,49.58,0,0,1,131.3,133.25Zm8.86-68.86a16.3,16.3,0,0,0-5.58,3.89,22.18,22.18,0,0,0-4.1,6.07A33.68,33.68,0,0,0,128,82.23h37.41V80.42a17.64,17.64,0,0,0-1.32-6.8,17.29,17.29,0,0,0-3.6-5.58,16.91,16.91,0,0,0-5.62-3.65A20.11,20.11,0,0,0,147.22,63,17.78,17.78,0,0,0,140.16,64.39Z"/>
    <path class="cls-1" d="M262.06,9V116.44h25.43V135H212.43V116.44H239V27.6H212.43V9Z"/>
    <path class="cls-1" d="M362.88,9V116.44h25.43V135H313.25V116.44h26.58V27.6H313.25V9Z"/>
    <path class="cls-1" d="M409,71.85a40.9,40.9,0,0,1,8.2-14.31A37.4,37.4,0,0,1,430.27,48a47.67,47.67,0,0,1,35.56,0A38.11,38.11,0,0,1,479,57.54a41.52,41.52,0,0,1,8.12,14.31,55.61,55.61,0,0,1,2.79,17.93V91.5a55.78,55.78,0,0,1-2.79,18A41.57,41.57,0,0,1,479,123.82a36.76,36.76,0,0,1-13.12,9.47,43.86,43.86,0,0,1-17.72,3.41,44.35,44.35,0,0,1-17.84-3.41,36.69,36.69,0,0,1-13.17-9.47A40.94,40.94,0,0,1,409,109.5a55.78,55.78,0,0,1-2.79-18V89.78A55.61,55.61,0,0,1,409,71.85ZM430.06,102a26.1,26.1,0,0,0,3.36,8.49,16.38,16.38,0,0,0,14.77,8,16.66,16.66,0,0,0,8.61-2.13,17.14,17.14,0,0,0,5.91-5.82A27.44,27.44,0,0,0,466,102a49,49,0,0,0,1.07-10.46V89.78A47.69,47.69,0,0,0,466,79.52,28.49,28.49,0,0,0,462.71,71a17.14,17.14,0,0,0-5.91-5.82A16.9,16.9,0,0,0,448,63a16.71,16.71,0,0,0-8.69,2.14A17.14,17.14,0,0,0,433.42,71a27.07,27.07,0,0,0-3.36,8.53A47.69,47.69,0,0,0,429,89.78V91.5A49,49,0,0,0,430.06,102Z"/>
  </g>
</svg>
