<svg id="Layer_1" data-name="Layer 1" xmlns="http://www.w3.org/2000/svg" viewBox="0 0 714.41 143.59">
  <defs>
    <style>
      .cls-1 {
        fill: #f2f1f1;
      }
    </style>
  </defs>
  <title>bg-text-welcome</title>
  <g>
    <path class="cls-1" d="M9,11.05H30.09l8,66.77.58,4.68.74-4.92,9.43-66.53H65.28l10,67L76,83l.58-5,8.12-66.94h21.16L89.31,130.49H68.48L58.06,66l-.9-6.07L56.25,66l-10,64.48H25.41Z"/>
    <path class="cls-1" d="M143.7,128.76a43.66,43.66,0,0,1-14.36-9.18A39.56,39.56,0,0,1,120.12,106a43.24,43.24,0,0,1-3.24-16.77V85.94a51.73,51.73,0,0,1,3.2-18.58A43,43,0,0,1,129,52.89a40.29,40.29,0,0,1,13.61-9.44,46.61,46.61,0,0,1,34.25-.2,35.76,35.76,0,0,1,12.76,8.9A38.76,38.76,0,0,1,197.51,66a55.74,55.74,0,0,1,2.71,17.84v9.68H140v.25a31.4,31.4,0,0,0,3,8.57,21.56,21.56,0,0,0,4.84,5.86,22.79,22.79,0,0,0,7.14,4.19,25.36,25.36,0,0,0,8.78,1.47,34.52,34.52,0,0,0,13-2.54A24,24,0,0,0,187,103.66L198.41,116q-4.35,6.15-13.78,11.15t-22.31,5A49.35,49.35,0,0,1,143.7,128.76Zm8.86-68.86A16.19,16.19,0,0,0,147,63.8a21.82,21.82,0,0,0-4.1,6.07,32.54,32.54,0,0,0-2.46,7.87h37.41v-1.8a17.85,17.85,0,0,0-4.93-12.39,16.71,16.71,0,0,0-5.62-3.65,20.24,20.24,0,0,0-7.67-1.35A17.93,17.93,0,0,0,152.56,59.9Z"/>
    <path class="cls-1" d="M274.46,4.49V112h25.43v18.54H224.83V112h26.58V23.11H224.83V4.49Z"/>
    <path class="cls-1" d="M366.58,112.93a16.81,16.81,0,0,0,5.33-2.79,12.74,12.74,0,0,0,3.57-4.34,11.13,11.13,0,0,0,1.11-5.66h21.49a26.49,26.49,0,0,1-2.83,12.79,31.62,31.62,0,0,1-8.16,10.17,39.15,39.15,0,0,1-12,6.69,43.23,43.23,0,0,1-14.48,2.42,44,44,0,0,1-18.13-3.49,36.1,36.1,0,0,1-13-9.55,40.93,40.93,0,0,1-7.92-14.24,56.23,56.23,0,0,1-2.66-17.51V85a56.87,56.87,0,0,1,2.62-17.51,40.46,40.46,0,0,1,7.88-14.24,37.43,37.43,0,0,1,13-9.59,43.13,43.13,0,0,1,18-3.53,45.32,45.32,0,0,1,15.17,2.46,36.8,36.8,0,0,1,12.06,6.89,31.55,31.55,0,0,1,7.79,10.87,33.28,33.28,0,0,1,2.63,14.23H376.59a14.87,14.87,0,0,0-1-6.23,14,14,0,0,0-3.36-5.09,16.73,16.73,0,0,0-5.33-3.4,17.83,17.83,0,0,0-6.81-1.27,16.5,16.5,0,0,0-8.94,2.21,16.07,16.07,0,0,0-5.58,5.91,26.21,26.21,0,0,0-3,8.45,55.51,55.51,0,0,0-.86,9.84v2.46a59.8,59.8,0,0,0,.82,10,24.43,24.43,0,0,0,3,8.41,15.84,15.84,0,0,0,5.62,5.9,16.87,16.87,0,0,0,9.06,2.22A20.51,20.51,0,0,0,366.58,112.93Z"/>
    <path class="cls-1" d="M421.38,67.36a40.83,40.83,0,0,1,8.2-14.31,37.28,37.28,0,0,1,13.08-9.52,47.67,47.67,0,0,1,35.56,0,38.05,38.05,0,0,1,13.21,9.52,41.61,41.61,0,0,1,8.12,14.31,55.65,55.65,0,0,1,2.79,17.93V87a55.89,55.89,0,0,1-2.79,18,41.61,41.61,0,0,1-8.12,14.31,36.87,36.87,0,0,1-13.12,9.48,44.06,44.06,0,0,1-17.72,3.4,44.57,44.57,0,0,1-17.85-3.4,36.67,36.67,0,0,1-13.16-9.48,40.83,40.83,0,0,1-8.2-14.31,55.89,55.89,0,0,1-2.79-18V85.29A55.65,55.65,0,0,1,421.38,67.36Zm21.08,30.11a26.1,26.1,0,0,0,3.36,8.49,16.42,16.42,0,0,0,14.77,8,16.57,16.57,0,0,0,8.61-2.14,17.14,17.14,0,0,0,5.91-5.82,27.44,27.44,0,0,0,3.28-8.49A49,49,0,0,0,479.45,87V85.29A47.7,47.7,0,0,0,478.39,75a28.49,28.49,0,0,0-3.28-8.53,16.25,16.25,0,0,0-14.69-8,16.78,16.78,0,0,0-8.69,2.13,17.14,17.14,0,0,0-5.91,5.82A27.07,27.07,0,0,0,442.46,75a47.69,47.69,0,0,0-1.07,10.26V87A49,49,0,0,0,442.46,97.47Z"/>
    <path class="cls-1" d="M537.37,52.48a22.2,22.2,0,0,1,7-9.07,17.75,17.75,0,0,1,10.87-3.32,19.14,19.14,0,0,1,5.58.74,11.52,11.52,0,0,1,4.26,2.29,11.86,11.86,0,0,1,2.42,2.75,17.94,17.94,0,0,1,1.77,3.65A22,22,0,0,1,571.86,46,16.67,16.67,0,0,1,575,43.21a17.17,17.17,0,0,1,4.84-2.3,20.15,20.15,0,0,1,5.91-.82,18.9,18.9,0,0,1,7.5,1.48,15.8,15.8,0,0,1,6.11,4.67,24.1,24.1,0,0,1,4,8.41,46.87,46.87,0,0,1,1.44,12.51v63.33H584V67.08a13.7,13.7,0,0,0-.53-4.19,7.09,7.09,0,0,0-1.43-2.62A5,5,0,0,0,580,59a8,8,0,0,0-2.42-.37,7.58,7.58,0,0,0-2.33.33A6,6,0,0,0,572,61.13a7,7,0,0,0-1,1.6v67.76H550.9V67a14.85,14.85,0,0,0-.49-4.19,6.65,6.65,0,0,0-1.31-2.54A5,5,0,0,0,547.05,59a7.92,7.92,0,0,0-2.46-.37,6.3,6.3,0,0,0-4.68,1.88,6.85,6.85,0,0,0-1.15,1.56,16.28,16.28,0,0,0-.9,2v66.45H517.11V41.73h19.6Z"/>
    <path class="cls-1" d="M647.78,128.76a43.62,43.62,0,0,1-14.35-9.18A39.45,39.45,0,0,1,624.2,106,43.42,43.42,0,0,1,621,89.23V85.94a51.73,51.73,0,0,1,3.2-18.58,43,43,0,0,1,8.94-14.47,40.43,40.43,0,0,1,13.62-9.44,46.59,46.59,0,0,1,34.24-.2,35.76,35.76,0,0,1,12.76,8.9A38.76,38.76,0,0,1,701.59,66a55.74,55.74,0,0,1,2.71,17.84v9.68H644.09v.25a31.74,31.74,0,0,0,2.95,8.57,21.75,21.75,0,0,0,4.84,5.86,22.79,22.79,0,0,0,7.14,4.19,25.4,25.4,0,0,0,8.78,1.47,34.52,34.52,0,0,0,13-2.54,24,24,0,0,0,10.25-7.63L702.5,116q-4.35,6.15-13.78,11.15t-22.32,5A49.39,49.39,0,0,1,647.78,128.76Zm8.86-68.86a16.19,16.19,0,0,0-5.58,3.9,22,22,0,0,0-4.1,6.07,33.44,33.44,0,0,0-2.46,7.87h37.41v-1.8A17.9,17.9,0,0,0,677,63.55a16.91,16.91,0,0,0-5.62-3.65,20.31,20.31,0,0,0-7.67-1.35A18,18,0,0,0,656.64,59.9Z"/>
  </g>
</svg>
