<svg id="Layer_1" data-name="Layer 1" xmlns="http://www.w3.org/2000/svg" viewBox="0 0 516.92 143.59">
  <defs>
    <style>
      .cls-1 {
        fill: #444545;
      }
    </style>
  </defs>
  <title>bg-text-about</title>
  <g>
    <path class="cls-1" d="M42,107.55l-7.06,24.94H10.63L49.76,13.05H70.68l38.39,119.44H84.79l-7-24.94ZM72.4,87.94,60.18,44l-12.55,44Z"/>
    <path class="cls-1" d="M199.79,101.11a58.65,58.65,0,0,1-2.62,10.54,39.45,39.45,0,0,1-5,9.68,30.06,30.06,0,0,1-15.75,11.36,35.48,35.48,0,0,1-10.38,1.44,32.71,32.71,0,0,1-9.39-1.27,24.91,24.91,0,0,1-7.59-3.74,24.65,24.65,0,0,1-3.36-2.74,31.78,31.78,0,0,1-3-3.33l-1.06,9.44H121.21V6.49H144V51.77a33.22,33.22,0,0,1,3.53-3.49,24,24,0,0,1,4-2.75,25.41,25.41,0,0,1,6.6-2.58,33.27,33.27,0,0,1,7.75-.86,35.58,35.58,0,0,1,10.55,1.48A28.3,28.3,0,0,1,185,47.83,27.67,27.67,0,0,1,190.52,53a39.79,39.79,0,0,1,4.35,6.52,48.09,48.09,0,0,1,4.39,12.71,75.52,75.52,0,0,1,1.44,15.1V89A76.33,76.33,0,0,1,199.79,101.11ZM177.56,80.48a41.42,41.42,0,0,0-1.06-6.15,27.84,27.84,0,0,0-2.34-6,15.42,15.42,0,0,0-4.31-4.88,13.67,13.67,0,0,0-4.26-2.1,19.48,19.48,0,0,0-5.42-.69A20.76,20.76,0,0,0,153,61.78a14.5,14.5,0,0,0-5.33,3.36,15.85,15.85,0,0,0-2,2.42A22.63,22.63,0,0,0,144,70.47v35.36a22.15,22.15,0,0,0,2.26,3.73,13.76,13.76,0,0,0,3,2.91,15,15,0,0,0,4.8,2.38,21.88,21.88,0,0,0,6.28.82,19.14,19.14,0,0,0,5.49-.74,13.76,13.76,0,0,0,8.41-6.77,24.79,24.79,0,0,0,2.42-6.6,39.75,39.75,0,0,0,.94-5.91c.2-2.13.29-4.34.29-6.64V87.29A68.14,68.14,0,0,0,177.56,80.48Z"/>
    <path class="cls-1" d="M221.2,69.36a41,41,0,0,1,8.21-14.31,37.28,37.28,0,0,1,13.08-9.52,47.67,47.67,0,0,1,35.56,0,38.05,38.05,0,0,1,13.21,9.52,41.78,41.78,0,0,1,8.12,14.31,55.65,55.65,0,0,1,2.79,17.93V89a55.89,55.89,0,0,1-2.79,18,41.78,41.78,0,0,1-8.12,14.31,36.82,36.82,0,0,1-13.13,9.48,44,44,0,0,1-17.72,3.4,44.55,44.55,0,0,1-17.84-3.4,36.67,36.67,0,0,1-13.16-9.48A41,41,0,0,1,221.2,107a55.89,55.89,0,0,1-2.79-18V87.29A55.65,55.65,0,0,1,221.2,69.36Zm21.09,30.11a26.1,26.1,0,0,0,3.36,8.49,16.42,16.42,0,0,0,14.76,8,16.58,16.58,0,0,0,8.62-2.14,17.19,17.19,0,0,0,5.9-5.82,27.44,27.44,0,0,0,3.29-8.49A49,49,0,0,0,279.28,89V87.29A47.7,47.7,0,0,0,278.22,77a28.5,28.5,0,0,0-3.29-8.53,17.19,17.19,0,0,0-5.9-5.82,17,17,0,0,0-8.78-2.13,16.78,16.78,0,0,0-8.69,2.13,17.14,17.14,0,0,0-5.91,5.82A27.07,27.07,0,0,0,242.29,77a47.07,47.07,0,0,0-1.07,10.26V89A48.34,48.34,0,0,0,242.29,99.47Z"/>
    <path class="cls-1" d="M379,120a34.29,34.29,0,0,1-10.87,10.42,26.79,26.79,0,0,1-13.9,3.77,36.09,36.09,0,0,1-12.64-2.13,24,24,0,0,1-9.84-6.81,31.68,31.68,0,0,1-6.36-11.77,58.18,58.18,0,0,1-2.25-17.27V43.73h22.8V96.39a45,45,0,0,0,.78,9.11,14.26,14.26,0,0,0,2.5,5.9,9.41,9.41,0,0,0,4.51,3.29,20.77,20.77,0,0,0,6.81,1,26.63,26.63,0,0,0,6.52-.74,17.74,17.74,0,0,0,5.13-2.13,15.75,15.75,0,0,0,3.36-3,18.72,18.72,0,0,0,2.55-3.86V43.73h22.88v88.76H380.26Z"/>
    <path class="cls-1" d="M465,43.73h33.14V60.55H465V98.69a25.2,25.2,0,0,0,1.11,8.08,12.15,12.15,0,0,0,3.16,5.13,11.58,11.58,0,0,0,5,2.79,24.28,24.28,0,0,0,6.52.82c1.75,0,3.54-.09,5.37-.25s3.6-.38,5.29-.66,3.19-.46,4.64-.73,2.69-.55,3.73-.82L502,128.71a27.78,27.78,0,0,1-5.58,2.42,53,53,0,0,1-6.81,1.69q-3.62.65-7.51,1t-7.67.37a42.63,42.63,0,0,1-13.24-1.93,25.21,25.21,0,0,1-10.13-6A26.21,26.21,0,0,1,444.49,116a44,44,0,0,1-2.29-15.06V60.55H421.93V43.73H442.2V22H465Z"/>
  </g>
</svg>
