<svg id="Layer_1" data-name="Layer 1" xmlns="http://www.w3.org/2000/svg" viewBox="0 0 192.69 143.59">
  <defs>
    <style>
      .cls-1 {
        fill: #f2f1f1;
      }
    </style>
  </defs>
  <title>bg-text-#2</title>
  <g>
    <path class="cls-1" d="M36.75,99.34l-6,33.63H16.08l6-33.63H3.36V85.48H24.53l4.26-23.79H9.52v-14H31.25l6.16-34.12H52L45.94,47.66H62.43L68.5,13.54H83.26L77.11,47.66h17.8v14H74.65L70.38,85.48h18.3V99.34H67.92l-6,33.63H47.25l6-33.63Zm19-13.86,4.18-23.79H43.39L39.21,85.48Z"/>
    <path class="cls-1" d="M109,133V117.39l38.64-41.51q4.5-4.92,7.63-8.94a70.82,70.82,0,0,0,5.08-7.38,29.69,29.69,0,0,0,2.75-6.16,19.46,19.46,0,0,0,.86-5.57,20.49,20.49,0,0,0-1.15-7.14,15.54,15.54,0,0,0-3.2-5.33,14.56,14.56,0,0,0-5-3.28,17.33,17.33,0,0,0-6.44-1.15,23.43,23.43,0,0,0-8.08,1.27,14.57,14.57,0,0,0-5.78,3.73,16.6,16.6,0,0,0-3.61,6.32,27.74,27.74,0,0,0-1.23,8.61H106.56a37.93,37.93,0,0,1,3-15,37.49,37.49,0,0,1,8.62-12.43A39.68,39.68,0,0,1,131.54,15,51.44,51.44,0,0,1,165,14.44a32.74,32.74,0,0,1,11.77,7.14,30.58,30.58,0,0,1,7.13,11,39.58,39.58,0,0,1,2.46,14.23,34.47,34.47,0,0,1-1.84,11.28,49.44,49.44,0,0,1-5.21,10.62,100.12,100.12,0,0,1-8.2,10.71q-4.76,5.46-10.58,11.44l-22.48,23.79h52.42V133Z"/>
  </g>
</svg>
